<svg width="155" height="158" viewBox="0 0 155 158" fill="none" xmlns="http://www.w3.org/2000/svg">
<path d="M47.2338 8.96243C52.8964 3.55614 60.5853 0.400466 68.3784 0.00800933C71.0455 0.00800933 73.7206 0.024028 76.3877 0C76.2516 2.85933 76.3877 5.72667 76.3076 8.586C75.9312 14.9774 73.5684 21.2247 69.5878 26.2385C64.4138 32.9824 56.5006 37.5077 48.0988 38.677C44.4305 39.2697 40.7062 38.8933 37.0139 38.9974C37.078 35.8497 36.8777 32.6941 37.126 29.5544C37.8469 21.7693 41.5231 14.3127 47.2338 8.96243Z" fill="#FFC100"/>
<path d="M78.8577 0C81.717 0.0320373 84.5763 -0.0160186 87.4437 0.0160186C94.58 0.520606 101.62 3.25979 106.994 8.00932C112.921 13.0952 116.982 20.3677 118.023 28.1368C118.48 31.741 118.191 35.3852 118.368 39.0054C115.869 38.9974 113.378 38.9894 110.879 39.0054C104.736 38.8372 98.6968 36.8509 93.5548 33.503C91.184 31.805 88.7492 30.083 86.9711 27.7283C83.0706 23.3712 80.4195 17.9008 79.4183 12.1341C78.6654 8.12946 78.9698 4.04471 78.8577 0Z" fill="#FFC100"/>
<path d="M37.0194 41.2958C39.5583 41.44 42.1053 41.1757 44.6362 41.456C55.4728 41.6883 65.9891 47.7754 71.6036 57.0422C74.8234 62.2322 76.5534 68.3834 76.3291 74.4945C76.3211 76.4968 76.3531 78.4911 76.2971 80.4855C72.2764 80.3653 68.2157 80.6937 64.235 79.9168C55.3927 78.4271 47.2633 73.1649 42.3696 65.6522C38.6613 60.1898 36.8111 53.5181 37.0033 46.9264C37.0033 45.0442 37.0033 43.17 37.0194 41.2958Z" fill="#FFC100"/>
<path d="M104.835 42.1443C109.192 41.1752 113.685 41.3354 118.114 41.3354L118.307 41.5276C118.211 45.7165 118.539 49.9534 117.698 54.0942C115.928 63.3851 109.777 71.6827 101.503 76.24C96.3531 79.1074 90.4422 80.517 84.5553 80.4529C82.6731 80.4609 80.7829 80.4209 78.9007 80.477C78.9007 77.0089 78.7566 73.5249 79.149 70.0728C80.0621 61.7191 84.5793 53.9421 91.0749 48.6879C95.0956 45.5163 99.8211 43.2176 104.835 42.1443Z" fill="#FFC100"/>
<path d="M2.61241 110.622H17.6164V116.98H13.9174V127.175L25.13 117.396V110.622H37.0824V117.442H34.4699L22.795 127.476L33.9845 138.804H36.8281V145.67H25.1994V138.804L13.9174 127.522V139.335H17.6164V145.67H2.61241V139.335H6.24204V116.98H2.61241V110.622ZM61.8656 130.435H55.3692V127.961C54.7373 127.961 54.1594 128.007 53.6353 128.1C53.1113 128.177 52.6489 128.316 52.2482 128.516C51.8629 128.716 51.5315 128.994 51.2541 129.348C50.9921 129.703 50.8071 130.142 50.6993 130.666V139.335H55.5773V145.67H39.9491V139.335H43.5325V128.054H39.9953V121.719H50.653V123.407C51.3312 122.867 52.0941 122.451 52.9418 122.158C53.7895 121.865 54.7142 121.719 55.716 121.719C56.7332 121.719 57.7813 121.727 58.8601 121.742C59.939 121.758 60.9408 121.765 61.8656 121.765V130.435ZM65.1253 121.719H76.8696V128.054H75.0201L78.4648 137.024L82.0019 128.054H79.9444V121.719H91.6887V128.054H89.0763L79.8057 150.224H83.9208V156.559H69.0555V150.224H73.24L75.0432 145.67L67.5528 128.054H65.1253V121.719ZM109.791 129.048C109.791 128.678 109.667 128.323 109.421 127.984C109.19 127.645 108.843 127.352 108.38 127.106C107.918 126.844 107.348 126.636 106.67 126.481C106.007 126.327 105.252 126.25 104.404 126.25C104.08 126.25 103.733 126.281 103.364 126.343C102.994 126.389 102.647 126.481 102.323 126.62C102.015 126.759 101.753 126.952 101.537 127.198C101.337 127.429 101.237 127.73 101.237 128.1C101.237 128.285 101.26 128.462 101.306 128.632C101.368 128.801 101.476 128.963 101.63 129.117C101.784 129.271 101.992 129.418 102.254 129.556C102.531 129.68 102.886 129.78 103.317 129.857L107.664 130.712C109.236 131.02 110.554 131.406 111.617 131.868C112.68 132.331 113.536 132.87 114.183 133.486C114.83 134.103 115.293 134.789 115.57 135.544C115.863 136.299 116.01 137.116 116.01 137.995C116.01 139.366 115.686 140.568 115.039 141.601C114.407 142.634 113.567 143.497 112.519 144.19C111.486 144.869 110.315 145.377 109.005 145.716C107.71 146.071 106.4 146.248 105.074 146.248C104.211 146.248 103.425 146.194 102.716 146.086C102.023 145.978 101.391 145.832 100.821 145.647C100.266 145.462 99.7648 145.246 99.3178 145C98.8863 144.738 98.4856 144.452 98.1157 144.144H93.9312V137.717H100.474V137.856C100.489 138.303 100.628 138.696 100.89 139.035C101.152 139.359 101.491 139.636 101.907 139.867C102.339 140.098 102.824 140.276 103.364 140.399C103.903 140.507 104.473 140.561 105.074 140.561C106.462 140.561 107.471 140.384 108.103 140.029C108.735 139.659 109.051 139.189 109.051 138.619C109.051 138.172 108.897 137.794 108.588 137.486C108.28 137.162 107.733 136.908 106.947 136.723L102.508 135.775C99.7186 135.236 97.6148 134.342 96.1968 133.093C94.7789 131.83 94.0699 130.211 94.0699 128.239C94.0699 127.083 94.3396 126.035 94.879 125.094C95.4185 124.139 96.1506 123.33 97.0753 122.667C98.0001 121.989 99.0789 121.465 100.312 121.095C101.56 120.725 102.894 120.54 104.311 120.54C105.282 120.54 106.146 120.602 106.901 120.725C107.656 120.833 108.334 120.979 108.935 121.164C109.536 121.349 110.06 121.573 110.507 121.835C110.97 122.081 111.378 122.343 111.733 122.621H115.755V129.048H109.791ZM129.025 121.719H133.811V127.776H128.979L128.933 137.902C128.933 138.488 128.979 138.966 129.072 139.335C129.164 139.69 129.295 139.975 129.465 140.191C129.65 140.407 129.865 140.553 130.112 140.63C130.359 140.707 130.644 140.746 130.967 140.746C131.553 140.746 132.069 140.692 132.516 140.584C132.963 140.461 133.41 140.322 133.857 140.168L134.851 144.63C134.065 145.123 133.187 145.516 132.216 145.809C131.26 146.102 130.12 146.248 128.794 146.248C127.854 146.248 126.952 146.086 126.089 145.762C125.242 145.439 124.494 144.953 123.847 144.306C123.199 143.643 122.683 142.819 122.298 141.832C121.912 140.846 121.728 139.698 121.743 138.388L121.812 127.776H118.368V121.719H121.835L121.882 115.986L129.072 112.564L129.025 121.719ZM137.995 109.697H148.792V139.335H152.491V145.67H137.995V139.335H141.694V116.032H137.995V109.697Z" fill="white"/>
</svg>
