<svg width="144" height="143" viewBox="0 0 144 143" fill="none" xmlns="http://www.w3.org/2000/svg">
<path d="M18.5334 16.6735C28.5211 7.13783 42.083 1.57183 55.8285 0.879605C60.5327 0.879605 65.2511 0.907859 69.9554 0.865479C69.7152 5.90879 69.9554 10.9662 69.8141 16.0095C69.1502 27.2828 64.9827 38.3018 57.9616 47.1453C48.8356 59.0402 34.8782 67.0219 20.0591 69.0844C13.5889 70.1298 7.01992 69.4659 0.507403 69.6495C0.620418 64.0976 0.267245 58.5316 0.70518 52.9939C1.9766 39.2625 8.46086 26.1103 18.5334 16.6735Z" fill="#FFC100"/>
<path d="M74.3119 0.865479C79.3552 0.921986 84.3985 0.837225 89.456 0.893732C102.043 1.78373 114.461 6.61514 123.94 14.9924C134.394 23.963 141.556 36.7903 143.393 50.4934C144.198 56.8505 143.689 63.2782 144 69.6636C139.592 69.6495 135.199 69.6354 130.791 69.6636C119.956 69.367 109.304 65.8635 100.235 59.9584C96.0532 56.9635 91.7586 53.9262 88.6225 49.7729C81.7426 42.0879 77.0666 32.4392 75.3008 22.2678C73.9728 15.2043 74.5097 7.99958 74.3119 0.865479Z" fill="#FFC100"/>
<path d="M0.517003 73.7035C4.99524 73.9578 9.4876 73.4916 13.9517 73.986C33.0654 74.3957 51.6141 85.1322 61.5171 101.477C67.1961 110.631 70.2475 121.481 69.852 132.26C69.8379 135.791 69.8944 139.309 69.7955 142.827C62.7038 142.615 55.5414 143.194 48.5203 141.824C32.9242 139.196 18.5853 129.915 9.95379 116.663C3.41302 107.029 0.149703 95.2612 0.488749 83.6347C0.488749 80.3149 0.488749 77.0092 0.517003 73.7035Z" fill="#FFC100"/>
<path d="M120.131 75.2001C127.816 73.4908 135.741 73.7733 143.553 73.7733L143.892 74.1123C143.723 81.5007 144.302 88.9739 142.819 96.2775C139.697 112.665 128.847 127.3 114.254 135.338C105.17 140.396 94.7447 142.882 84.3615 142.769C81.0416 142.783 77.7077 142.713 74.3878 142.812C74.3878 136.695 74.1336 130.549 74.8258 124.461C76.4362 109.726 84.4038 96.0091 95.8608 86.7418C102.952 81.1476 111.287 77.0931 120.131 75.2001Z" fill="#FFC100"/>
</svg>
