<svg width="278" height="278" viewBox="0 0 278 278" fill="none" xmlns="http://www.w3.org/2000/svg">
<path fill-rule="evenodd" clip-rule="evenodd" d="M278 139C278 62.2324 215.768 0 139 0C62.2324 0 0 62.2324 0 139C0 215.768 62.2324 278 139 278C215.768 278 278 215.768 278 139ZM121.625 139C121.625 200.001 126.537 251.823 133.369 270.538C132.079 269.2 130.685 267.356 129.213 264.866C125.36 258.348 121.74 248.627 118.642 236.234C112.462 211.515 108.594 177.136 108.594 139C108.594 100.864 112.462 66.4849 118.642 41.7657C121.74 29.3726 125.36 19.6516 129.213 13.1335C130.685 10.6442 132.079 8.80013 133.369 7.46231C126.537 26.1765 121.625 77.9994 121.625 139ZM148.787 264.866C147.315 267.356 145.921 269.2 144.631 270.538C151.463 251.823 156.375 200.001 156.375 139C156.375 77.9995 151.463 26.1765 144.631 7.46228C145.921 8.8001 147.315 10.6441 148.787 13.1335C152.64 19.6516 156.26 29.3726 159.358 41.7657C165.538 66.4849 169.406 100.864 169.406 139C169.406 177.136 165.538 211.515 159.358 236.234C156.26 248.627 152.64 258.348 148.787 264.866ZM126.31 268.441C124.863 267.244 123.412 265.832 121.961 264.195C116.203 257.7 110.819 248.055 106.209 235.763C97.0022 211.211 91.2188 177.001 91.2188 139C91.2188 100.999 97.0022 66.7894 106.209 42.2374C110.819 29.9453 116.203 20.2996 121.961 13.805C123.412 12.1685 124.863 10.7563 126.31 9.55919C113.395 29.834 104.25 80.1453 104.25 139C104.25 197.855 113.395 248.166 126.31 268.441ZM151.69 268.441C153.137 267.244 154.588 265.832 156.039 264.195C161.797 257.7 167.181 248.055 171.791 235.763C180.998 211.211 186.781 177.001 186.781 139C186.781 100.999 180.998 66.7894 171.791 42.2374C167.181 29.9453 161.797 20.2996 156.039 13.805C154.588 12.1685 153.137 10.7563 151.69 9.55918C164.605 29.834 173.75 80.1453 173.75 139C173.75 197.855 164.605 248.166 151.69 268.441ZM93.7412 235.345C100.796 249.456 109.127 259.95 118.081 266.353C99.7082 244.862 86.875 195.927 86.875 139C86.875 82.0728 99.7082 33.1384 118.081 11.647C109.127 18.0502 100.796 28.5444 93.7412 42.6547C81.525 67.0872 73.8438 101.144 73.8438 139C73.8438 176.856 81.525 210.913 93.7412 235.345ZM184.259 235.345C177.204 249.456 168.873 259.95 159.919 266.353C178.292 244.862 191.125 195.927 191.125 139C191.125 82.0728 178.292 33.1384 159.919 11.647C168.873 18.0502 177.204 28.5444 184.259 42.6547C196.475 67.0872 204.156 101.144 204.156 139C204.156 176.856 196.475 210.913 184.259 235.345ZM108.906 264.329C98.6184 257.704 89.2189 247.73 81.2536 234.986C66.028 210.625 56.4688 176.7 56.4688 139C56.4688 101.3 66.028 67.3753 81.2536 43.0143C89.2189 30.2699 98.6184 20.2959 108.906 13.6715C85.5916 36.1053 69.5 83.7943 69.5 139C69.5 194.206 85.5917 241.895 108.906 264.329ZM169.094 264.329C179.382 257.704 188.781 247.73 196.746 234.986C211.972 210.625 221.531 176.7 221.531 139C221.531 101.3 211.972 67.3753 196.746 43.0143C188.781 30.2699 179.382 20.2959 169.094 13.6715C192.408 36.1053 208.5 83.7943 208.5 139C208.5 194.206 192.408 241.895 169.094 264.329ZM68.7591 234.682C77.4556 246.277 87.6579 255.672 98.8903 262.331C71.0991 239.145 52.125 192.618 52.125 139C52.125 85.382 71.0991 38.8546 98.8903 15.6694C87.6579 22.3279 77.4556 31.7231 68.7591 43.3184C50.5097 67.651 39.0938 101.465 39.0938 139C39.0938 176.535 50.5097 210.349 68.7591 234.682ZM209.241 234.682C200.544 246.277 190.342 255.672 179.11 262.331C206.901 239.145 225.875 192.618 225.875 139C225.875 85.382 206.901 38.8546 179.11 15.6693C190.342 22.3279 200.544 31.723 209.241 43.3184C227.49 67.651 238.906 101.465 238.906 139C238.906 176.535 227.49 210.349 209.241 234.682ZM88.0111 260.268C48.9439 238.567 21.7188 192.687 21.7188 139C21.7188 85.3133 48.9438 39.4328 88.0111 17.7321C56.2252 41.5429 34.75 86.9276 34.75 139C34.75 191.072 56.2253 236.457 88.0111 260.268ZM189.989 260.268C229.056 238.567 256.281 192.687 256.281 139C256.281 85.3133 229.056 39.4328 189.989 17.7321C221.775 41.5429 243.25 86.9276 243.25 139C243.25 191.072 221.775 236.457 189.989 260.268ZM4.34375 139C4.34375 190.9 33.706 235.943 76.7251 258.422C41.1793 234.159 17.375 189.757 17.375 139C17.375 88.2433 41.1793 43.8407 76.7251 19.5782C33.706 42.0574 4.34375 87.0997 4.34375 139ZM273.656 139C273.656 190.9 244.294 235.943 201.275 258.422C236.821 234.159 260.625 189.757 260.625 139C260.625 88.2434 236.821 43.8407 201.275 19.5782C244.294 42.0573 273.656 87.0997 273.656 139ZM146.976 236.749C150.091 211.824 152.031 177.262 152.031 139C152.031 100.738 150.091 66.1764 146.976 41.2509C145.414 28.7577 143.577 18.852 141.597 12.1544C141.455 11.6716 141.313 11.2106 141.172 10.7711V267.229C141.313 266.789 141.455 266.328 141.597 265.846C143.577 259.148 145.414 249.242 146.976 236.749ZM136.828 10.7711V267.229C136.687 266.789 136.545 266.328 136.403 265.846C134.423 259.148 132.586 249.242 131.024 236.749C127.909 211.824 125.969 177.262 125.969 139C125.969 100.738 127.909 66.1764 131.024 41.2509C132.586 28.7577 134.423 18.852 136.403 12.1544C136.545 11.6716 136.687 11.2106 136.828 10.7711Z" fill="url(#paint0_linear_12_895)"/>
<defs>
<linearGradient id="paint0_linear_12_895" x1="80.3594" y1="13.0313" x2="184.609" y2="286.688" gradientUnits="userSpaceOnUse">
<stop stop-color="#FBBC05"/>
<stop offset="1" stop-color="#FFF9EB"/>
</linearGradient>
</defs>
</svg>
